<svg height="496pt" viewBox="0 0 496 496" width="496pt" xmlns="http://www.w3.org/2000/svg"><path d="m56 319v25.015625h225v-68.015625l-7.160156-10.777344c-3.472656-4.757812-8.246094-8.558594-13.960938-10.839844l-59.878906-23.949218v-24.480469h-64v24.480469l-59.878906 23.949218c-12.152344 4.855469-20.121094 16.625-20.121094 29.714844v43.902344zm0 0" fill="#fcd770"/><path d="m88 136.015625v-48.015625c0-44.183594 35.824219-80 80-80s80 35.816406 80 80v48.015625zm0 0" fill="#b27946"/><g fill="#f0d0b4"><path d="m111.800781 168h-15.800781c-8.832031 0-16-7.167969-16-16v-16c0-8.832031 7.167969-16 16-16h144c8.832031 0 16 7.167969 16 16v16c0 8.832031-7.167969 16-16 16zm0 0"/><path d="m24 352h448v136h-448zm0 0"/><path d="m135.71875 189.710938.28125 40.722656 32 32 32-32v-40.722656zm0 0"/></g><path d="m135.960938 224.382812c9.664062 4.824219 20.519531 7.617188 32.039062 7.617188 11.503906 0 22.34375-2.785156 32-7.59375v-34.695312h-64.28125zm0 0" fill="#ecc19c"/><path d="m112 104v56c0 30.929688 25.070312 56 56 56s56-25.070312 56-56v-56zm0 0" fill="#f0d0b4"/><path d="m104 246.433594 24 48 40-32-32-32-34.816406 13.925781zm0 0" fill="#e6e9ed"/><path d="m232 246.433594 3.457031-1.824219-35.457031-14.175781-32 32 40 32zm0 0" fill="#e6e9ed"/><path d="m280 264h144c8.832031 0 16 7.167969 16 16v64.015625h-176v-64.015625c0-8.832031 7.167969-16 16-16zm0 0" fill="#969faa"/><path d="m472 376h-448c-8.839844 0-16-7.167969-16-16v-16c0-8.832031 7.160156-16 16-16h448c8.832031 0 16 7.167969 16 16v16c0 8.832031-7.167969 16-16 16zm0 0" fill="#b27946"/><path d="m344 168h80c8.832031 0 16 7.167969 16 16v32h-112v-32c0-8.832031 7.167969-16 16-16zm0 0" fill="#838f9b"/><path d="m24 457.617188h448v30.382812h-448zm0 0" fill="#fcd770"/><path d="m24 376h448v16h-448zm0 0" fill="#ecc19c"/><path d="m360 216h48v48h-48zm0 0" fill="#ccd1d9"/><path d="m264 312h176v16h-176zm0 0" fill="#838f9b"/><path d="m56 312h208v16h-208zm0 0" fill="#ffc729"/><path d="m472 320h-24v-40c0-13.230469-10.769531-24-24-24h-8v-32h32v-40c0-13.230469-10.769531-24-24-24h-80c-13.230469 0-24 10.769531-24 24v40h32v32h-72c-1.105469 0-2.160156.183594-3.222656.328125-3.914063-4.0625-8.640625-7.265625-13.921875-9.375l-54.855469-21.9375v-15.136719c3.640625-2.925781 6.953125-6.238281 9.878906-9.878906h14.121094c13.230469 0 24-10.769531 24-24v-6.238281c4.871094-4.394531 8-10.699219 8-17.761719v-16c0-7.0625-3.128906-13.359375-8-17.761719v-30.238281c0-48.519531-39.480469-88-88-88s-88 39.480469-88 88v30.238281c-4.871094 4.394531-8 10.699219-8 17.761719v16c0 13.230469 10.769531 24 24 24h10.105469c3.503906 13.542969 11.292969 25.359375 21.894531 33.878906v15.136719l-54.855469 21.9375c-15.273437 6.109375-25.144531 20.6875-25.144531 37.144531v35.902344h-24c-13.230469 0-24 10.769531-24 24v16c0 10.414062 6.710938 19.214844 16 22.527344v113.472656h464v-113.472656c9.289062-3.3125 16-12.113282 16-22.527344v-16c0-13.230469-10.769531-24-24-24zm-40-40v40h-160v-40c0-4.414062 3.59375-8 8-8h144c4.40625 0 8 3.585938 8 8zm-96-96c0-4.414062 3.59375-8 8-8h80c4.40625 0 8 3.585938 8 8v24h-96zm32 40h32v32h-32zm-145.710938 23.960938-17.015624 34.039062-25.296876-20.230469 21.953126-21.953125zm9.710938-63.960938h-4.710938c1.046876-2.585938 1.894532-5.265625 2.605469-8h10.105469c0 4.414062-3.59375 8-8 8zm16-48v16c0 4.414062-3.59375 8-8 8h-8v-32h8c4.40625 0 8 3.585938 8 8zm-152-48c0-39.703125 32.304688-72 72-72s72 32.296875 72 72v24h-8v-16h-128v16h-8zm0 72c-4.40625 0-8-3.585938-8-8v-16c0-4.414062 3.59375-8 8-8h8v32zm24 0v-48h96v48c0 8.742188-2.390625 16.929688-6.496094 24h-41.503906v16h26.480469c-7.601563 5.046875-16.695313 8-26.480469 8-26.472656 0-48-21.527344-48-48zm48 64c8.488281 0 16.585938-1.695312 24-4.710938v7.832032l-24 24-24-24v-7.832032c7.414062 3.015626 15.511719 4.710938 24 4.710938zm-33.929688 15.816406 21.953126 21.953125-25.296876 20.230469-17.015624-34.039062zm-70.070312 44.28125c0-9.867187 5.921875-18.617187 15.089844-22.28125l19.710937-7.886718 26.464844 52.933593 42.734375-34.191406 42.726562 34.183594 26.464844-52.933594 19.71875 7.886719c1.753906.695312 3.328125 1.703125 4.851563 2.777344-3.546875 4.183593-5.761719 9.519531-5.761719 15.414062v40h-192zm400 99.902344v64h-432v-64zm-432 96v-16h432v16zm448-120c0 4.414062-3.59375 8-8 8h-448c-4.40625 0-8-3.585938-8-8v-16c0-4.414062 3.59375-8 8-8h448c4.40625 0 8 3.585938 8 8zm0 0"/><path d="m288 288h16v16h-16zm0 0"/><path d="m320 288h16v16h-16zm0 0"/></svg>